<?xml version="1.0" encoding="utf-8"?>
<!-- Generator: Adobe Illustrator 16.0.0, SVG Export Plug-In . SVG Version: 6.00 Build 0)  -->
<!DOCTYPE svg PUBLIC "-//W3C//DTD SVG 1.0//EN" "http://www.w3.org/TR/2001/REC-SVG-20010904/DTD/svg10.dtd">
<svg version="1.0" id="Layer_1" xmlns="http://www.w3.org/2000/svg" xmlns:xlink="http://www.w3.org/1999/xlink" x="0px" y="0px"
	 width="38.155px" height="36.641px" viewBox="0 0 38.155 36.641" enable-background="new 0 0 38.155 36.641" xml:space="preserve">
<path fill-rule="evenodd" clip-rule="evenodd" fill="#FFFFFF" d="M8.465,20.655c0.072-0.016,0.146-0.016,0.236,0
	c0.075,0,0.191,0.031,0.266,0.06v0.029c0.324,0.104,0.62,0.356,0.471,0.769c-0.236,0.088-0.501-0.089-0.649-0.281
	C8.26,20.908,8.275,20.715,8.465,20.655z M11.476,16.553c0.104,0.016-0.03,0.161-0.176,0.12h-0.029
	c-0.031,0-0.047-0.046-0.059-0.061C11.341,16.553,11.432,16.553,11.476,16.553z M14.562,15.341c0.396-0.071,1.208,0.224,0.442,0.68
	c0.25-0.248-0.163-0.164-0.237-0.149C14.282,15.534,14.338,15.386,14.562,15.341z M23.046,13.1c0.327-0.017,1.05,0.324,0.991,0.782
	c-0.326,0.516-1.197,0.472-0.858-0.294C22.826,13.262,22.855,13.113,23.046,13.1z M14.589,9.63c0.99-0.059,0.798,2.112-0.028,2.452
	c-0.709-0.667,0.235-1.625-0.178-2.392C14.472,9.661,14.532,9.63,14.589,9.63z M17.63,7.947c0.606-0.074,1.211,0.178,1.387,0.886
	c0.414,1.683-1.268,2.772-1.889,4.163c-1.55-0.445,0.089-2.141-0.576-2.98C15.608,9.055,16.628,8.081,17.63,7.947z M16.479,7.684
	c0.074,0,0.119,0.014,0.177,0.03c0.354,0,0.235,0.395,0,0.5c-0.827,0.798-1.048-0.354-0.355-0.5
	C16.361,7.713,16.419,7.684,16.479,7.684z M12.155,5.411c2.022,0.693-1.035,2.848,0.501,3.689c0.149,0,0.282,0.044,0.399,0.088
	c0.043-0.043,0.059-0.015,0.059,0.027c0.693,0.328,0.839,1.302-0.281,1.242c-1.563-0.44-2.185,2.878-0.651,2.464
	c0.563-1.563,2.26-0.899,2.555,0.487c0.915,1.403-0.944,1.388-1.58,1.992c0.635,1.168-1.138,0.562-1.799,1.124
	c-1.271,0.281-1.67,2.213-2.776,2.271c-0.046-2.021-3.411-1.342-2.85,0.503c0.708,0.562,1.668,1.138,1.521,2.316
	c-0.044,2.512,3.026,1.683,4.398,3.011c1.669,0.74,2.76,2.258,4.234,3.248c1.285-0.445,3.913,0.782,2.644,2.317
	c-0.769,0.561-2.318,1.061-2.318,1.387v0.03c-2.021,0.192-1.402,0.339-1.978,0.382c-1.151-0.339-2.346-0.839-3.336-1.445
	c-0.014-0.013-0.058-0.013-0.073-0.03c-0.443-1.315-1.697-2.138-2.539-3.204c-0.426-0.44-0.518-0.929-0.472-1.443
	c0,0-0.03-0.032-0.016-0.032c0.045-0.84,0.34-1.726-0.265-2.508c-0.975-1.594-2.186-3.069-2.806-4.856
	c-0.071-1.845-0.178-3.615,0.443-5.372C6.532,10.309,9.925,7.313,12.155,5.411z M18.25,3.475c5.757,0,10.745,3.353,13.109,8.222
	c0.012,0,0,0.016,0,0.029c0.029,0.179,0.042,0.339,0.029,0.533c0.132,0.103,0.266,0.266,0.412,0.441
	c0.34,0.828,0.576,1.711,0.736,2.613c-0.13,0.132-0.323,0.22-0.604,0.236c-1.519-1.18-0.043,1.313,0.782,0.854
	c0.072,0.547,0.119,1.094,0.119,1.654c0,3.601-1.328,6.88-3.512,9.433c0-0.089,0.029-0.208,0.072-0.385
	c1.004-1.238,0.812-3.66-1.238-3.395c-1.078,0.842-2.568,1.918-3.867,0.678c-1.359-1.224-0.726-3.246,0.028-4.619
	c0.767-1.107,1.02-2.744,2.36-3.309c1.329,0.299,2.969,0.211,3.441-1.415c0.427-0.721,0.19-0.956-0.193-1.15l-0.088-0.014
	c-0.444-0.19-1.004-0.34-1.064-0.99c0.401-0.677-0.439-2.065-0.767-0.81c0.68,0.769,0.842,3.098-0.796,2.227
	c0.574,0.943-2.11,0.338-1.595,1.654c0.429,1.431-2.435,2.229-1.622,0.413c0.471-1.345-0.206-3.351,0.975-4.208
	c0-0.041,0.104-0.218,0.059-0.028l0.117-0.089c1.033-0.722-1.314-2.863-1.18-1.534c1.018,0.531,0.457,1.594-0.517,1.062
	c-1.047-0.518-1.414-3.352,0.014-3.159c1.093,0.148,0.058-1.001-0.426-1.564c-0.059,0.264-0.149-0.046-0.104-0.073L22.84,6.679
	c0.149-1.697-2.702-0.206-3.17-1.728c-1.802-0.901-3.84-0.942-5.832-0.796c0.752-0.25,1.535-0.383,2.347-0.501l0.235-0.029
	c0.223-0.029,0.445-0.045,0.65-0.089C17.454,3.506,17.852,3.475,18.25,3.475z M18.25,1.823C9.291,1.823,2.016,9.1,2.016,18.058
	c0,8.959,7.275,16.236,16.234,16.236c8.959,0,16.237-7.276,16.237-16.236C34.487,9.1,27.209,1.823,18.25,1.823z"/>
</svg>
