<?xml version="1.0" encoding="utf-8"?>
<!-- Generator: Adobe Illustrator 16.0.0, SVG Export Plug-In . SVG Version: 6.00 Build 0)  -->
<!DOCTYPE svg PUBLIC "-//W3C//DTD SVG 1.0//EN" "http://www.w3.org/TR/2001/REC-SVG-20010904/DTD/svg10.dtd">
<svg version="1.0" id="Layer_1" xmlns="http://www.w3.org/2000/svg" xmlns:xlink="http://www.w3.org/1999/xlink" x="0px" y="0px"
	 width="65.106px" height="36.641px" viewBox="0 0 65.106 36.641" enable-background="new 0 0 65.106 36.641" xml:space="preserve">
<g>
	<path fill="#FFFFFF" d="M42.062,17.038c0.544-0.638,1.123-1.246,1.734-1.827c-0.011-0.016-0.018-0.022-0.028-0.038
		c-0.933,0.744-1.825,1.542-2.656,2.424c-0.569,0.487-0.777,1.215-0.719,1.766c0.055,0.512,0.136,1.02,0.248,1.508
		c0,0,0.331-0.303,0.7-0.632c0.49-0.44,0.688-1.179,0.691-1.745C42.026,18.012,42.035,17.527,42.062,17.038z"/>
	<path fill="#FFFFFF" d="M42.416,17.921c-0.013,0.502-0.007,0.999,0.019,1.489c-0.002-0.001,0.373-0.238,0.783-0.517
		c0.538-0.366,0.82-1.065,0.881-1.624c0.043-0.468,0.1-0.939,0.168-1.411c0.602-0.54,1.229-1.058,1.883-1.551
		c-0.01-0.016-0.015-0.023-0.022-0.037c-0.984,0.626-1.929,1.303-2.829,2.039C42.708,16.713,42.431,17.378,42.416,17.921z"/>
	<path fill="#FFFFFF" d="M44.925,26.421c-0.213-0.443-0.705-0.932-1.296-0.976c-0.442-0.033-0.837-0.014-0.837-0.011
		c0.234,0.381,0.457,0.774,0.668,1.165c0.232,0.42,0.646,0.834,1.18,0.943c0.836,0.299,1.652,0.641,2.455,1.014
		c0.004-0.016,0.008-0.021,0.014-0.037c-0.546-0.326-1.101-0.645-1.668-0.945C45.277,27.189,45.104,26.807,44.925,26.421z"/>
	<path fill="#FFFFFF" d="M38.987,19.271c-0.544,0.644-0.637,1.521-0.438,2.075c0.184,0.523,0.421,1.021,0.733,1.431
		c0,0,0.183-0.43,0.457-0.853c0.359-0.563,0.423-1.336,0.34-1.912c-0.081-0.492-0.134-0.991-0.168-1.502
		c0.494-0.743,1.033-1.432,1.606-2.091c-0.013-0.015-0.019-0.021-0.03-0.034C40.595,17.241,39.747,18.165,38.987,19.271z"/>
	<path fill="#FFFFFF" d="M46.899,26.673c-0.186-0.456-0.637-0.966-1.218-1.063c-0.438-0.065-0.834-0.09-0.834-0.088
		c0.198,0.396,0.386,0.799,0.563,1.195c0.201,0.438,0.59,0.873,1.119,1.02c0.831,0.333,1.646,0.702,2.444,1.098
		c0.005-0.015,0.007-0.023,0.015-0.036c-0.539-0.333-1.088-0.653-1.648-0.964C47.2,27.445,47.052,27.062,46.899,26.673z"/>
	<path fill="#FFFFFF" d="M41.552,25.204c0.597-0.075,1.119-0.535,1.408-0.963c0.24-0.375,0.494-0.735,0.764-1.101
		c0.729-0.204,1.475-0.371,2.229-0.504c0-0.018,0-0.025-0.002-0.043c-1.079,0.089-2.153,0.242-3.215,0.479
		c-0.675,0.07-1.19,0.52-1.425,0.959c-0.222,0.412-0.426,0.842-0.605,1.26C40.706,25.296,41.108,25.25,41.552,25.204z"/>
	<path fill="#FFFFFF" d="M45.974,23.38c0.729-0.134,1.471-0.233,2.219-0.31c0-0.016,0.002-0.021,0.004-0.039
		c-1.065,0.004-2.127,0.064-3.179,0.194c-0.654,0.005-1.195,0.373-1.48,0.778c-0.264,0.38-0.513,0.758-0.746,1.149
		c0-0.002,0.402,0.014,0.847,0.013c0.596,0.002,1.162-0.395,1.489-0.787C45.397,24.044,45.681,23.708,45.974,23.38z"/>
	<path fill="#FFFFFF" d="M45.153,19.211c-0.472-0.264-1.215-0.393-1.776-0.064c-0.421,0.247-0.771,0.512-0.77,0.512
		c0.448,0.195,0.888,0.404,1.317,0.619c0.475,0.234,1.101,0.342,1.65,0.107c0.931-0.281,1.88-0.511,2.832-0.702
		c-0.006-0.018-0.008-0.024-0.012-0.044c-0.688,0.074-1.377,0.165-2.065,0.278C45.944,19.676,45.554,19.441,45.153,19.211z"/>
	<path fill="#FFFFFF" d="M53.977,26.509c-0.417,0.263-0.626,0.403-1.037,0.686c0,0.001,0.368,0.149,0.788,0.31
		c0.533,0.193,1.17,0.072,1.604-0.16c0.415-0.232,0.626-0.35,1.045-0.563c0.669,0.198,1.329,0.428,1.991,0.673
		c0.006-0.013,0.01-0.02,0.013-0.033c-0.933-0.405-1.879-0.76-2.834-1.074C54.981,26.151,54.385,26.258,53.977,26.509z"/>
	<path fill="#FFFFFF" d="M49.339,25.176c0.375-0.332,0.565-0.496,0.954-0.818c0.717,0.01,1.44,0.031,2.165,0.092
		c0.002-0.016,0.005-0.023,0.008-0.037c-1.025-0.164-2.051-0.277-3.074-0.337c-0.618-0.091-1.195,0.165-1.543,0.502
		c-0.314,0.313-0.619,0.628-0.912,0.951c0.001-0.003,0.389,0.087,0.83,0.157C48.345,25.783,48.957,25.506,49.339,25.176z"/>
	<path fill="#FFFFFF" d="M51.38,25.78c0.395-0.3,0.59-0.444,0.992-0.732c0.703,0.079,1.41,0.178,2.113,0.308
		c0.002-0.016,0.006-0.021,0.008-0.037c-0.996-0.248-1.995-0.451-3-0.605c-0.598-0.13-1.188,0.076-1.556,0.384
		c-0.331,0.284-0.653,0.565-0.966,0.86c0.001-0.003,0.383,0.111,0.819,0.212C50.354,26.305,50.979,26.078,51.38,25.78z"/>
	<path fill="#FFFFFF" d="M46.599,20.67c-0.685,0.084-1.371,0.188-2.047,0.322c-0.406-0.22-0.818-0.428-1.241-0.625
		c-0.49-0.23-1.254-0.295-1.772,0.107c-0.385,0.297-0.682,0.618-0.682,0.617c0.484,0.125,0.948,0.277,1.404,0.452
		c0.491,0.177,1.105,0.241,1.612-0.032c0.883-0.318,1.807-0.581,2.742-0.799C46.61,20.695,46.604,20.686,46.599,20.67z"/>
	<path fill="#FFFFFF" d="M50.811,27.59c-0.14-0.467-0.535-1.002-1.087-1.173c-0.427-0.126-0.812-0.211-0.812-0.208
		c0.141,0.402,0.275,0.811,0.405,1.211c0.151,0.452,0.497,0.913,1.005,1.123c0.805,0.408,1.596,0.84,2.365,1.295
		c0.007-0.014,0.012-0.02,0.018-0.031c-0.515-0.365-1.043-0.713-1.581-1.058C51.003,28.291,50.941,28.059,50.811,27.59z"/>
	<path fill="#FFFFFF" d="M48.867,27.067c-0.162-0.462-0.583-0.988-1.151-1.124c-0.434-0.098-0.824-0.156-0.824-0.154
		c0.167,0.402,0.325,0.809,0.478,1.211c0.175,0.445,0.542,0.895,1.062,1.078c0.815,0.384,1.614,0.801,2.394,1.241
		c0.007-0.016,0.011-0.021,0.018-0.036c-0.521-0.365-1.059-0.707-1.602-1.053C49.097,27.771,49.022,27.537,48.867,27.067z"/>
	<path fill="#FFFFFF" d="M46.712,15.768c-0.098,0.47-0.185,0.939-0.257,1.407c0,0,0.406-0.167,0.856-0.372
		c0.585-0.265,0.979-0.883,1.135-1.413c0.145-0.528,0.221-0.791,0.386-1.31c0.68-0.404,1.38-0.788,2.105-1.139
		c-0.009-0.016-0.012-0.024-0.017-0.04c-1.07,0.439-2.102,0.93-3.097,1.473C47.206,14.668,46.827,15.247,46.712,15.768z"/>
	<path fill="#FFFFFF" d="M48.95,14.953c-0.134,0.453-0.256,0.902-0.367,1.353c0,0,0.416-0.136,0.883-0.308
		c0.596-0.221,1.039-0.794,1.238-1.308c0.185-0.503,0.281-0.755,0.489-1.249c0.713-0.333,1.448-0.646,2.21-0.92
		c-0.006-0.015-0.008-0.022-0.014-0.037c-1.115,0.333-2.188,0.729-3.224,1.182C49.532,13.908,49.106,14.445,48.95,14.953z"/>
	<path fill="#FFFFFF" d="M52.723,28.23c-0.119-0.473-0.485-1.016-1.024-1.216c-0.418-0.155-0.798-0.259-0.799-0.257
		c0.121,0.398,0.233,0.806,0.341,1.207c0.131,0.451,0.458,0.927,0.948,1.162c0.792,0.434,1.564,0.896,2.316,1.381
		c0.006-0.012,0.011-0.02,0.02-0.031c-0.504-0.373-1.02-0.742-1.544-1.098C52.882,28.925,52.831,28.69,52.723,28.23z"/>
	<path fill="#FFFFFF" d="M57.449,14.259c-0.598-0.199-1.425-0.227-1.946,0.094c-0.395,0.242-0.706,0.492-0.706,0.492
		c0.612,0.133,0.917,0.206,1.506,0.367c0.591,0.151,1.322,0.197,1.855-0.042c0.247-0.116,0.479-0.219,0.62-0.284
		c1.039,0.065,2.074,0.238,3.055,0.585c0.007-0.012,0.009-0.02,0.012-0.032c-0.975-0.375-2.014-0.582-3.062-0.675
		C58.298,14.558,58.002,14.449,57.449,14.259z"/>
	<path fill="#FFFFFF" d="M53.581,13.817c-0.245,0.483-0.361,0.727-0.581,1.223c0,0,0.431-0.077,0.919-0.173
		c0.61-0.123,1.147-0.582,1.447-1.043c0.274-0.439,0.418-0.658,0.719-1.083c0.788-0.126,1.596-0.204,2.424-0.224
		c0-0.018,0-0.024-0.005-0.039c-1.201-0.005-2.363,0.114-3.492,0.308C54.349,12.916,53.827,13.354,53.581,13.817z"/>
	<path fill="#FFFFFF" d="M51.24,14.298c-0.2,0.513-0.296,0.771-0.472,1.294c0,0,0.424-0.108,0.902-0.246
		c0.604-0.173,1.095-0.694,1.34-1.185c0.227-0.477,0.347-0.713,0.6-1.177c0.75-0.243,1.521-0.458,2.32-0.623
		c-0.003-0.016-0.005-0.021-0.009-0.038c-1.162,0.191-2.28,0.465-3.362,0.806C51.913,13.318,51.44,13.809,51.24,14.298z"/>
	<path fill="#FFFFFF" d="M51.98,25.743c-0.343,0.253-0.677,0.507-1.007,0.772c0-0.002,0.376,0.131,0.805,0.263
		c0.549,0.167,1.182-0.009,1.602-0.272c0.404-0.271,0.609-0.396,1.021-0.648c0.69,0.133,1.379,0.292,2.065,0.475
		c0.005-0.015,0.005-0.021,0.012-0.035c-0.972-0.321-1.949-0.595-2.933-0.825C52.964,25.309,52.371,25.463,51.98,25.743z"/>
	<path fill="#FFFFFF" d="M47.253,24.702c0.293-0.304,0.596-0.608,0.908-0.905c0.723-0.047,1.451-0.064,2.186-0.058
		c0.001-0.016,0.001-0.022,0.003-0.039c-1.038-0.095-2.078-0.141-3.114-0.128c-0.638-0.048-1.198,0.261-1.52,0.631
		c-0.293,0.346-0.573,0.689-0.844,1.047c0-0.004,0.397,0.055,0.842,0.092C46.302,25.398,46.897,25.062,47.253,24.702z"/>
	<path fill="#FFFFFF" d="M44.53,16.748c-0.06,0.486-0.104,0.972-0.135,1.453c0,0,0.394-0.2,0.827-0.438
		c0.566-0.312,0.909-0.972,1.02-1.517c0.101-0.55,0.158-0.82,0.281-1.363c0.636-0.485,1.296-0.95,1.982-1.389
		c-0.009-0.015-0.013-0.022-0.021-0.039c-1.023,0.55-2.006,1.147-2.949,1.795C44.932,15.596,44.599,16.216,44.53,16.748z"/>
	<path fill="#FFFFFF" d="M42.954,26.344c-0.246-0.425-0.781-0.885-1.38-0.856c-0.438,0.013-0.827,0.092-0.828,0.089
		c0.285,0.367,0.55,0.727,0.8,1.105c0.272,0.398,0.708,0.773,1.239,0.834c0.833,0.223,1.655,0.5,2.464,0.817
		c0.003-0.016,0.006-0.024,0.009-0.042c-0.554-0.289-1.118-0.563-1.694-0.819C43.37,27.098,43.167,26.715,42.954,26.344z"/>
	<path fill="#FFFFFF" d="M41.683,21.695c-0.505-0.166-1.289-0.12-1.684,0.406c-0.289,0.383-0.42,0.787-0.42,0.787
		c0.498-0.076,0.982-0.04,1.447,0.041c0.5,0.08,1.035,0.11,1.434-0.188c0.733-0.369,1.584-0.693,2.463-0.971
		c-0.01-0.016-0.014-0.025-0.022-0.041c-0.653,0.127-1.298,0.276-1.918,0.457C42.562,22.007,42.126,21.84,41.683,21.695z"/>
	<path fill="#FFFFFF" d="M54.766,28.203c0.094,0.48,0.141,0.715,0.224,1.186c0.09,0.461,0.375,0.945,0.829,1.225
		c0.77,0.459,1.519,0.949,2.241,1.465c0.011-0.011,0.016-0.016,0.025-0.027c-0.488-0.379-0.999-0.735-1.511-1.093
		c-0.054-0.442-0.085-0.667-0.148-1.121c-0.077-0.476-0.394-1.034-0.897-1.286C55.132,28.348,54.764,28.205,54.766,28.203z"/>
	<path fill="#FFFFFF" d="M55.568,15.741c-0.355-0.393-0.989-0.706-1.605-0.616c-0.487,0.068-0.909,0.175-0.909,0.175
		c0.393,0.368,0.584,0.555,0.953,0.925c0.369,0.361,0.92,0.621,1.486,0.603c0.952-0.048,1.893-0.032,2.787,0.072
		c0-0.016,0.004-0.025,0.007-0.04c-0.62-0.092-1.267-0.149-1.925-0.168C56.058,16.309,55.899,16.121,55.568,15.741z"/>
	<path fill="#FFFFFF" d="M56.294,28.773c0.393,0.408,0.584,0.617,0.96,1.029c0.376,0.411,0.941,0.797,1.472,0.853
		c0.255,0.024,0.486,0.044,0.625,0.054c0.805,0.501,1.588,1.04,2.338,1.621c0.009-0.01,0.013-0.016,0.021-0.023
		c-0.741-0.605-1.514-1.172-2.312-1.7c-0.294-0.368-0.471-0.59-0.808-0.986c-0.367-0.432-0.973-0.845-1.521-0.861
		C56.656,28.742,56.292,28.773,56.294,28.773z"/>
	<path fill="#FFFFFF" d="M54.597,28.979c-0.098-0.476-0.439-1.024-0.96-1.251c-0.409-0.183-0.785-0.304-0.783-0.305
		c0.119,0.483,0.175,0.721,0.281,1.199c0.111,0.455,0.415,0.938,0.89,1.193c0.779,0.452,1.54,0.931,2.273,1.435
		c0.01-0.011,0.014-0.017,0.021-0.028c-0.495-0.377-0.999-0.75-1.518-1.105C54.726,29.662,54.683,29.44,54.597,28.979z"/>
	<path fill="#FFFFFF" d="M55.926,27.384c-0.429,0.231-0.643,0.354-1.063,0.601c-0.002,0.002,0.355,0.17,0.768,0.353
		c0.516,0.226,1.15,0.156,1.603-0.046c0.421-0.197,0.636-0.291,1.063-0.475c0.634,0.283,1.266,0.574,1.886,0.904
		c0.005-0.014,0.007-0.02,0.011-0.033c-0.884-0.495-1.785-0.945-2.703-1.354C56.947,27.105,56.349,27.166,55.926,27.384z"/>
	<path fill="#FFFFFF" d="M48.231,18.977c-0.438-0.307-0.66-0.461-1.113-0.762c-0.455-0.296-1.178-0.465-1.764-0.192
		c-0.442,0.208-0.816,0.437-0.816,0.437c0.422,0.23,0.836,0.47,1.242,0.715c0.455,0.266,1.078,0.408,1.648,0.215
		c0.963-0.217,1.934-0.389,2.898-0.52c-0.006-0.018-0.006-0.025-0.009-0.042C49.626,18.856,48.931,18.906,48.231,18.977z"/>
	<path fill="#FFFFFF" d="M53.401,16.105c-0.389-0.366-1.051-0.637-1.664-0.498c-0.481,0.108-0.892,0.246-0.892,0.246
		c0.421,0.348,0.629,0.527,1.03,0.878c0.398,0.337,0.975,0.564,1.552,0.494c0.968-0.091,1.93-0.127,2.86-0.097
		c0-0.017,0.001-0.024,0.001-0.04c-0.648-0.058-1.315-0.082-1.994-0.082C53.948,16.643,53.771,16.464,53.401,16.105z"/>
	<path fill="#FFFFFF" d="M51.26,16.653c-0.414-0.341-1.099-0.577-1.706-0.394c-0.472,0.143-0.873,0.31-0.873,0.31
		c0.375,0.271,0.743,0.55,1.105,0.83c0.418,0.316,1.015,0.515,1.594,0.399c0.975-0.135,1.947-0.22,2.899-0.252
		c0-0.017,0-0.026-0.001-0.042c-0.672-0.023-1.354-0.021-2.043,0.003C51.855,17.164,51.659,16.994,51.26,16.653z"/>
	<path fill="#FFFFFF" d="M49.159,17.361c-0.435-0.32-1.141-0.522-1.737-0.295c-0.458,0.174-0.849,0.37-0.849,0.37
		c0.397,0.255,0.788,0.514,1.174,0.781c0.437,0.291,1.048,0.463,1.627,0.307c0.969-0.185,1.94-0.322,2.903-0.418
		c-0.003-0.016-0.003-0.024-0.007-0.042c-0.68,0.013-1.37,0.052-2.063,0.106C49.797,17.845,49.587,17.683,49.159,17.361z"/>
	<path fill="#FFFFFF" d="M24.366,23.514c0.399,1.133,1.062,2.194,1.903,2.941c0.212,0.191,0.43,0.359,0.651,0.507
		c1.423,0.569,2.425,1.407,2.711,1.647c0.527,0.44,0.648,0.477,1.066,0.988c0.007-0.004,0.021-0.004,0.021-0.01
		c0.058-0.297,0.396-0.684,0.877-1.061c0.776-0.606,1.381-0.898,2.238-1.369c0.347-0.202,0.694-0.449,1.022-0.753
		c0.832-0.757,1.484-1.825,1.869-2.964c0.408-1.123,0.592-2.796,0.533-4.383c-0.017-1.542,0.037-3.222,0.252-4.751
		c0.209-1.53,0.6-2.911,1.109-3.806c0.492-0.921,1.146-1.223,1.142-1.213c0.017-0.007-0.72,0.111-1.491,0.953
		c-0.773,0.808-1.533,2.165-2.107,3.719c-0.581,1.554-0.994,3.302-1.246,4.923c-0.184,1.406-0.458,2.853-1.006,4.166
		c-0.57,1.363-1.614,2.537-2.916,3.24c-0.149,0.08-0.312,0.167-0.431,0.289c-0.078,0.079-1.509-0.986-1.647-1.1
		c-0.489-0.401-0.902-0.882-1.235-1.42c-0.963-1.552-1.263-3.355-1.559-5.125c-0.272-1.618-0.704-3.36-1.304-4.908
		c-0.591-1.547-1.367-2.896-2.15-3.695c-0.778-0.832-1.517-0.942-1.502-0.936c-0.004-0.009,0.652,0.286,1.156,1.199
		c0.521,0.89,0.926,2.267,1.153,3.793c0.231,1.528,0.305,3.206,0.308,4.751C23.743,20.725,23.947,22.396,24.366,23.514z"/>
	<path fill="#FFFFFF" d="M28.796,6.825c0.354,0.067,0.688-0.141,0.759-0.459l0.011-0.041c0.069-0.317-0.146-0.643-0.494-0.734
		l-0.52-0.134c-0.347-0.092-0.703,0.119-0.782,0.467L27.761,5.97c-0.078,0.348,0.155,0.685,0.509,0.751L28.796,6.825z"/>
	<path fill="#FFFFFF" d="M34.288,18.746c0.053-0.348,0.12-0.743,0.206-1.172c-0.123-0.237-0.38-0.396-0.675-0.387l-1.028,0.029
		c-0.405,0.013-0.724,0.331-0.715,0.708l0.005,0.3c0.008,0.377,0.339,0.682,0.745,0.676l1.028-0.012
		C34.017,18.887,34.166,18.834,34.288,18.746z"/>
	<path fill="#FFFFFF" d="M32.941,23.562c0.213-0.371,0.394-0.781,0.542-1.23c0.002-0.004,0.004-0.008,0.004-0.014
		c0.056-0.16,0.119-0.348,0.184-0.562l-0.938-0.02c-0.418-0.01-0.766,0.302-0.776,0.691l-0.013,0.381
		c-0.014,0.389,0.309,0.718,0.726,0.74L32.941,23.562z"/>
	<path fill="#FFFFFF" d="M34.172,19.52c-0.083-0.032-0.175-0.05-0.27-0.05l-1.113,0.009c-0.411,0.003-0.743,0.318-0.744,0.703v0.342
		c-0.003,0.385,0.327,0.701,0.739,0.707l1.028,0.014C33.937,20.769,34.062,20.193,34.172,19.52z"/>
	<path fill="#FFFFFF" d="M34.277,13.641l-0.016-0.22c-0.024-0.373-0.363-0.653-0.753-0.622l-0.863,0.066
		c-0.387,0.031-0.679,0.349-0.654,0.713l0.016,0.213c0.022,0.364,0.356,0.642,0.744,0.62l0.864-0.05
		C34.003,14.338,34.302,14.016,34.277,13.641z"/>
	<path fill="#FFFFFF" d="M34.448,15.82l-0.011-0.263c-0.017-0.38-0.354-0.674-0.75-0.653l-0.947,0.05
		c-0.396,0.021-0.701,0.34-0.687,0.712l0.013,0.255c0.015,0.371,0.349,0.662,0.745,0.649l0.947-0.033
		C34.154,16.521,34.466,16.202,34.448,15.82z"/>
	<path fill="#FFFFFF" d="M26.87,19.537c0.121,0.684,0.253,1.262,0.384,1.744l0.952-0.025c0.412-0.01,0.736-0.33,0.731-0.715
		l-0.007-0.342c-0.004-0.385-0.34-0.696-0.751-0.694l-1.112,0.007C26.999,19.512,26.934,19.521,26.87,19.537z"/>
	<path fill="#FFFFFF" d="M31.725,18.249l-0.002-0.318c-0.003-0.406-0.333-0.731-0.736-0.728l-1.03,0.006
		c-0.404,0.002-0.73,0.332-0.729,0.736l0.004,0.319c0.002,0.407,0.33,0.731,0.735,0.729l1.028-0.007
		C31.4,18.983,31.727,18.654,31.725,18.249z"/>
	<path fill="#FFFFFF" d="M29.188,20.354l0.001,0.364c0.004,0.412,0.339,0.743,0.752,0.741l1.113-0.006
		c0.41-0.002,0.742-0.339,0.739-0.75l-0.002-0.365c-0.002-0.412-0.339-0.744-0.75-0.742l-1.11,0.006
		C29.519,19.605,29.186,19.939,29.188,20.354z"/>
	<path fill="#FFFFFF" d="M27.592,22.354c0.001,0.004,0.004,0.009,0.004,0.013c0.153,0.445,0.338,0.851,0.554,1.22l0.195-0.012
		c0.418-0.027,0.738-0.361,0.719-0.748l-0.016-0.383c-0.018-0.388-0.368-0.693-0.787-0.682l-0.859,0.028
		C27.469,22.005,27.533,22.193,27.592,22.354z"/>
	<path fill="#FFFFFF" d="M34.062,11.601l-0.017-0.175c-0.034-0.368-0.374-0.632-0.753-0.593l-0.78,0.083
		c-0.38,0.041-0.657,0.36-0.624,0.715l0.018,0.169c0.031,0.356,0.363,0.619,0.745,0.587l0.78-0.064
		C33.812,12.292,34.096,11.969,34.062,11.601z"/>
	<path fill="#FFFFFF" d="M29.17,24.855c0.035,0.029,0.07,0.061,0.104,0.092c0.195,0.166,0.402,0.32,0.625,0.463
		c0.225,0.146,0.443,0.278,0.65,0.404l0.01,0.006c0.004-0.002,0.008-0.005,0.01-0.006c0.207-0.129,0.421-0.264,0.645-0.411
		c0.189-0.124,0.367-0.257,0.535-0.399c0.045-0.037,0.088-0.076,0.131-0.113c0.299-0.268,0.562-0.57,0.797-0.906l-0.07-0.004
		c-0.428-0.025-0.789,0.273-0.822,0.652l-0.007,0.066c-0.141-0.191-0.368-0.317-0.627-0.314l-1.274,0.006
		c-0.26,0.002-0.484,0.131-0.624,0.324l-0.007-0.066c-0.037-0.379-0.401-0.672-0.824-0.644
		C28.643,24.318,28.892,24.602,29.17,24.855z"/>
	<path fill="#FFFFFF" d="M29.484,5.492c0.002,0.359,0.296,0.649,0.655,0.646l0.537-0.004c0.359-0.001,0.648-0.295,0.646-0.654V5.436
		c0-0.121-0.034-0.234-0.094-0.33c0.129,0.041,0.273,0.047,0.416,0.005l0.436-0.131c0.338-0.1,0.532-0.458,0.408-0.801
		c-0.124-0.344-0.51-0.509-0.828-0.362l-0.416,0.182c-0.32,0.147-0.485,0.479-0.384,0.763c0.007,0.022,0.02,0.044,0.028,0.066
		c-0.068-0.025-0.143-0.039-0.222-0.039l-0.537,0.003c-0.077,0.001-0.153,0.015-0.222,0.041c0.011-0.021,0.021-0.043,0.027-0.065
		c0.098-0.287-0.069-0.616-0.392-0.76L29.126,3.83c-0.32-0.143-0.703,0.024-0.823,0.372c-0.119,0.346,0.078,0.7,0.417,0.797
		l0.436,0.125c0.146,0.042,0.292,0.034,0.419-0.011c-0.057,0.099-0.091,0.212-0.09,0.333V5.492z"/>
	<path fill="#FFFFFF" d="M28.546,8.586c0.365,0.049,0.695-0.183,0.748-0.517l0.014-0.083c0.053-0.333-0.191-0.656-0.552-0.72
		l-0.609-0.109C27.784,7.09,27.44,7.325,27.383,7.68L27.37,7.769c-0.057,0.354,0.2,0.681,0.563,0.731L28.546,8.586z"/>
	<path fill="#FFFFFF" d="M28.363,10.462c0.374,0.038,0.704-0.215,0.743-0.56l0.014-0.127c0.039-0.345-0.224-0.663-0.596-0.712
		l-0.695-0.09c-0.371-0.05-0.713,0.205-0.754,0.565l-0.014,0.132c-0.042,0.36,0.231,0.684,0.604,0.72L28.363,10.462z"/>
	<path fill="#FFFFFF" d="M28.237,12.414c0.381,0.027,0.71-0.241,0.738-0.596l0.015-0.17c0.028-0.354-0.251-0.671-0.632-0.708
		l-0.78-0.073c-0.379-0.036-0.718,0.233-0.747,0.601l-0.016,0.176c-0.027,0.368,0.26,0.687,0.641,0.715L28.237,12.414z"/>
	<path fill="#FFFFFF" d="M27.296,14.397l0.865,0.039c0.389,0.018,0.717-0.262,0.736-0.627l0.013-0.214
		c0.021-0.363-0.274-0.68-0.665-0.706l-0.862-0.056c-0.388-0.026-0.724,0.256-0.745,0.632l-0.012,0.218
		C26.605,14.06,26.905,14.378,27.296,14.397z"/>
	<path fill="#FFFFFF" d="M27.23,14.941c-0.397-0.017-0.73,0.28-0.744,0.662l-0.008,0.263c-0.012,0.381,0.302,0.699,0.699,0.708
		l0.947,0.023c0.396,0.009,0.726-0.285,0.736-0.657l0.009-0.257c0.012-0.371-0.297-0.685-0.693-0.703L27.23,14.941z"/>
	<path fill="#FFFFFF" d="M33.052,5.938l-0.009-0.043c-0.083-0.347-0.441-0.553-0.787-0.458l-0.52,0.139
		c-0.347,0.096-0.56,0.425-0.483,0.74l0.009,0.041c0.075,0.317,0.413,0.521,0.766,0.448l0.524-0.108
		C32.904,6.626,33.134,6.288,33.052,5.938z"/>
	<path fill="#FFFFFF" d="M29.269,15.536l0.002,0.274c0.003,0.396,0.325,0.718,0.723,0.715l0.949-0.006
		c0.396-0.001,0.715-0.325,0.713-0.723l-0.001-0.272c-0.003-0.398-0.327-0.718-0.723-0.714l-0.948,0.005
		C29.587,14.816,29.268,15.139,29.269,15.536z"/>
	<path fill="#FFFFFF" d="M33.464,7.733L33.45,7.646c-0.062-0.355-0.409-0.586-0.77-0.516l-0.607,0.116
		c-0.361,0.071-0.602,0.395-0.544,0.727l0.014,0.084c0.056,0.333,0.391,0.56,0.754,0.507l0.614-0.092
		C33.271,8.417,33.524,8.088,33.464,7.733z"/>
	<path fill="#FFFFFF" d="M33.795,9.632l-0.018-0.131c-0.046-0.36-0.388-0.61-0.759-0.558l-0.692,0.099
		c-0.372,0.053-0.634,0.373-0.59,0.718l0.017,0.126c0.043,0.346,0.376,0.593,0.748,0.551l0.697-0.079
		C33.569,10.318,33.839,9.993,33.795,9.632z"/>
	<path fill="#FFFFFF" d="M30.624,4.282c0.352-0.002,0.636-0.289,0.635-0.641c-0.003-0.352-0.289-0.636-0.643-0.632l-0.454,0.002
		c-0.353,0.002-0.637,0.288-0.634,0.641c0.002,0.353,0.289,0.635,0.64,0.633L30.624,4.282z"/>
	<path fill="#FFFFFF" d="M31.86,22.744c-0.002-0.418-0.344-0.756-0.765-0.754l-1.193,0.006c-0.421,0.002-0.757,0.344-0.756,0.764
		l0.003,0.411c0.001,0.421,0.344,0.759,0.765,0.755l1.194-0.006c0.418-0.004,0.755-0.345,0.754-0.764L31.86,22.744z"/>
	<path fill="#FFFFFF" d="M26.511,17.524c0.103,0.481,0.184,0.922,0.248,1.304c0,0.004,0,0.01,0.002,0.015v0.001
		c0.104,0.054,0.222,0.085,0.347,0.085h1.028c0.405,0,0.734-0.308,0.736-0.686l0.003-0.299c0.003-0.38-0.317-0.692-0.722-0.701
		l-1.03-0.018C26.87,17.22,26.646,17.339,26.511,17.524z"/>
	<path fill="#FFFFFF" d="M31.39,7.356V7.265c-0.004-0.366-0.303-0.662-0.671-0.66l-0.618,0.004c-0.367,0.001-0.663,0.3-0.662,0.667
		l0.002,0.091c0.002,0.367,0.302,0.662,0.67,0.66l0.617-0.003C31.095,8.023,31.39,7.723,31.39,7.356z"/>
	<path fill="#FFFFFF" d="M29.396,9.216l0.002,0.137c0.001,0.374,0.307,0.676,0.682,0.674l0.701-0.004
		c0.374-0.003,0.677-0.308,0.674-0.682l-0.002-0.137c-0.001-0.375-0.306-0.676-0.68-0.675l-0.701,0.004
		C29.696,8.535,29.395,8.84,29.396,9.216z"/>
	<path fill="#FFFFFF" d="M29.353,11.227l0.002,0.182c0.004,0.382,0.313,0.69,0.695,0.687l0.785-0.004
		c0.379-0.002,0.688-0.314,0.686-0.695l-0.002-0.181c0-0.383-0.312-0.691-0.694-0.688l-0.783,0.003
		C29.659,10.534,29.353,10.844,29.353,11.227z"/>
	<path fill="#FFFFFF" d="M29.31,13.309l0.003,0.229c0.003,0.389,0.319,0.703,0.709,0.701l0.866-0.006
		c0.389-0.001,0.703-0.318,0.701-0.708l-0.002-0.227c-0.002-0.39-0.32-0.705-0.71-0.702L30.011,12.6
		C29.622,12.603,29.309,12.918,29.31,13.309z"/>
	<path fill="#FFFFFF" d="M17.973,22.512c0.217,0.426,0.655,0.898,1.198,1.027c0.411,0.098,0.784,0.174,0.784,0.174
		c-0.132-0.399-0.278-0.798-0.441-1.195c-0.177-0.428-0.601-0.877-1.195-1.02c-0.944-0.313-1.905-0.567-2.884-0.768
		c-0.001,0.014-0.003,0.021-0.008,0.035c0.675,0.197,1.334,0.419,1.979,0.668C17.604,21.79,17.795,22.148,17.973,22.512z"/>
	<path fill="#FFFFFF" d="M19.445,25.832c0.487,0.064,0.959-0.174,1.298-0.466c0.311-0.278,0.635-0.54,0.983-0.789
		c0,0-0.335-0.165-0.731-0.286c-0.537-0.162-1.129,0.121-1.451,0.454c-0.275,0.288-0.543,0.579-0.801,0.878
		c-0.582,0.1-1.161,0.225-1.735,0.367c0,0.016,0,0.022,0,0.039C17.823,25.92,18.642,25.848,19.445,25.832z"/>
	<path fill="#FFFFFF" d="M17.739,25.449c0.512,0.021,0.979-0.256,1.287-0.586c0.277-0.307,0.564-0.606,0.865-0.898
		c0-0.002-0.359-0.107-0.771-0.175c-0.55-0.09-1.106,0.238-1.403,0.596c-0.248,0.303-0.49,0.612-0.724,0.921
		c-0.585,0.119-1.164,0.257-1.735,0.408c0.001,0.016,0.001,0.021,0.004,0.035C16.082,25.615,16.911,25.511,17.739,25.449z"/>
	<path fill="#FFFFFF" d="M17.207,24.546c0.25-0.32,0.509-0.638,0.776-0.951c0,0-0.369-0.069-0.787-0.101
		c-0.55-0.04-1.079,0.316-1.353,0.692c-0.27,0.378-0.399,0.569-0.655,0.947c-0.582,0.158-1.154,0.329-1.715,0.517
		c0.004,0.014,0.004,0.021,0.006,0.038c0.812-0.192,1.638-0.351,2.476-0.47C16.47,25.199,16.923,24.896,17.207,24.546z"/>
	<path fill="#FFFFFF" d="M6.093,25.117c0.497,0.029,1.068-0.232,1.495-0.531c0.423-0.311,0.643-0.459,1.092-0.753
		c0,0-0.326-0.104-0.716-0.177c-0.514-0.1-1.165,0.176-1.584,0.517c-0.383,0.321-0.586,0.498-0.91,0.81
		c-0.81,0.396-1.578,0.877-2.243,1.475c0.007,0.01,0.009,0.015,0.02,0.023c0.678-0.577,1.452-1.031,2.263-1.4
		C5.641,25.088,5.857,25.102,6.093,25.117z"/>
	<path fill="#FFFFFF" d="M7.913,23.193c0.381,0.276,0.948,0.479,1.475,0.39c0.42-0.071,0.787-0.142,0.788-0.142
		c-0.327-0.329-0.494-0.487-0.838-0.801c-0.339-0.296-0.889-0.486-1.456-0.386c-0.963,0.188-1.928,0.446-2.887,0.815
		c0.002,0.016,0.004,0.02,0.008,0.033c0.669-0.235,1.338-0.419,2.006-0.56C7.38,22.791,7.56,22.924,7.913,23.193z"/>
	<path fill="#FFFFFF" d="M9.062,21.983c0.342,0.293,0.511,0.449,0.838,0.759c0.346,0.315,0.896,0.584,1.432,0.539
		c0.424-0.035,0.797-0.078,0.797-0.078c-0.301-0.365-0.455-0.543-0.771-0.893c-0.311-0.327-0.836-0.577-1.411-0.531
		c-0.97,0.059-1.946,0.18-2.933,0.381c0.001,0.014,0.002,0.02,0.003,0.033C7.706,22.084,8.386,22.018,9.062,21.983z"/>
	<path fill="#FFFFFF" d="M13.923,22.332c0.285,0.377,0.789,0.75,1.336,0.784c0.423,0.026,0.8,0.036,0.8,0.036
		c-0.202-0.352-0.412-0.7-0.634-1.047c-0.252-0.381-0.732-0.727-1.315-0.773c-0.96-0.131-1.935-0.209-2.923-0.234
		c-0.002,0.014-0.002,0.021-0.002,0.036c0.688,0.06,1.363,0.153,2.03,0.269C13.505,21.768,13.647,21.955,13.923,22.332z"/>
	<path fill="#FFFFFF" d="M15.946,22.346c0.255,0.402,0.729,0.824,1.276,0.902c0.419,0.059,0.794,0.097,0.794,0.097
		c-0.171-0.375-0.354-0.748-0.551-1.118c-0.217-0.406-0.67-0.801-1.259-0.893c-0.953-0.23-1.919-0.408-2.905-0.535
		c-0.002,0.014-0.002,0.023-0.006,0.037c0.684,0.143,1.353,0.312,2.01,0.506C15.569,21.737,15.696,21.937,15.946,22.346z"/>
	<path fill="#FFFFFF" d="M11.905,22.461c0.313,0.351,0.845,0.673,1.388,0.668c0.425-0.006,0.799-0.021,0.799-0.021
		c-0.227-0.326-0.46-0.65-0.707-0.971c-0.28-0.357-0.782-0.656-1.361-0.658c-0.967-0.046-1.946-0.035-2.938,0.037
		c0.001,0.016,0.001,0.022,0.001,0.035c0.692-0.013,1.375,0.012,2.047,0.062C11.448,21.943,11.603,22.115,11.905,22.461z"/>
	<path fill="#FFFFFF" d="M11.589,24.451c0.215-0.404,0.327-0.608,0.559-1.018c0,0-0.372,0.017-0.79,0.076
		c-0.531,0.076-0.979,0.494-1.179,0.906c-0.184,0.397-0.273,0.595-0.44,0.99c-0.541,0.209-1.067,0.43-1.569,0.676
		c0.008,0.012,0.01,0.019,0.016,0.031c0.734-0.309,1.513-0.574,2.314-0.795C10.981,25.197,11.373,24.84,11.589,24.451z"/>
	<path fill="#FFFFFF" d="M19.996,22.857c0.177,0.453,0.558,0.982,1.085,1.187c0.396,0.149,0.751,0.29,0.751,0.29
		c-0.058-0.424-0.147-0.854-0.259-1.279c-0.123-0.458-0.511-0.978-1.115-1.192c-0.934-0.454-1.889-0.82-2.861-1.129
		c-0.006,0.015-0.006,0.023-0.012,0.038c0.664,0.279,1.314,0.588,1.943,0.932C19.698,22.086,19.855,22.472,19.996,22.857z"/>
	<path fill="#FFFFFF" d="M22.02,23.479c0.11,0.482,0.396,1.081,0.854,1.424c0.35,0.254,0.625,0.543,0.625,0.543
		c0.127-0.426,0.164-0.895,0.15-1.369c-0.01-0.504-0.352-1.177-0.982-1.523c-0.945-0.653-1.905-1.133-2.879-1.547
		c-0.005,0.015-0.008,0.023-0.013,0.036c0.657,0.353,1.3,0.741,1.92,1.185C21.825,22.643,21.935,23.058,22.02,23.479z"/>
	<path fill="#FFFFFF" d="M9.73,24.695c0.183-0.408,0.278-0.616,0.482-1.03c0,0-0.371,0.044-0.782,0.138
		c-0.519,0.117-0.932,0.561-1.096,0.982c-0.148,0.404-0.219,0.604-0.344,1.002c-0.521,0.217-1.02,0.458-1.486,0.722
		c0.006,0.011,0.01,0.018,0.016,0.028c0.684-0.355,1.432-0.655,2.208-0.906C9.187,25.474,9.546,25.097,9.73,24.695z"/>
	<path fill="#FFFFFF" d="M12.059,24.201c-0.216,0.394-0.32,0.589-0.52,0.979c-0.558,0.191-1.105,0.397-1.634,0.621
		c0.005,0.014,0.008,0.021,0.012,0.033c0.771-0.264,1.573-0.492,2.394-0.681c0.499-0.085,0.915-0.427,1.154-0.806
		c0.203-0.334,0.414-0.67,0.63-1.001c0,0-0.372-0.011-0.793,0.019C12.761,23.403,12.286,23.803,12.059,24.201z"/>
	<path fill="#FFFFFF" d="M13.363,25.092c-0.571,0.168-1.134,0.348-1.684,0.544c0.003,0.016,0.005,0.022,0.009,0.036
		c0.797-0.218,1.616-0.404,2.447-0.552c0.512-0.052,0.946-0.375,1.207-0.741c0.227-0.328,0.461-0.656,0.701-0.981
		c0,0-0.372-0.037-0.792-0.037c-0.547,0-1.049,0.378-1.3,0.767C13.708,24.513,13.591,24.706,13.363,25.092z"/>
	<path fill="#FFFFFF" d="M20.948,26.385c0.328,0.094,0.659-0.008,0.973-0.162c0.078-0.038,0.156-0.08,0.231-0.124
		c0.346-0.208,0.723-0.382,1.144-0.476c0,0.002-0.228-0.283-0.574-0.5c-0.478-0.301-1.117-0.1-1.471,0.188
		c-0.311,0.251-0.605,0.518-0.889,0.789c-0.55,0.044-1.111,0.12-1.673,0.22c-0.002,0.016-0.002,0.023-0.005,0.039
		c0.772-0.046,1.535-0.045,2.226,0.02C20.923,26.384,20.938,26.385,20.948,26.385z"/>
	<circle fill="#FFFFFF" cx="20.104" cy="19.005" r="1.041"/>
	<path fill="#FFFFFF" d="M22.947,18.207c0.027-0.057,0.046-0.117,0.058-0.177c0.028-0.136,0.024-0.273-0.012-0.403
		c-0.065-0.237-0.231-0.444-0.473-0.554c-0.432-0.194-0.939-0.002-1.134,0.43c-0.194,0.431-0.003,0.938,0.428,1.134
		C22.246,18.83,22.755,18.639,22.947,18.207z"/>
	<circle fill="#FFFFFF" cx="22.031" cy="19.942" r="0.857"/>
	<circle fill="#FFFFFF" cx="37.42" cy="26.049" r="1.04"/>
	<path fill="#FFFFFF" d="M39.729,24.203c0-0.064-0.007-0.125-0.018-0.186c-0.026-0.137-0.087-0.261-0.169-0.365
		c-0.153-0.194-0.388-0.318-0.652-0.325c-0.473-0.011-0.865,0.364-0.874,0.837c-0.013,0.474,0.361,0.865,0.836,0.877
		C39.324,25.053,39.717,24.676,39.729,24.203z"/>
	<circle fill="#FFFFFF" cx="39.561" cy="26.159" r="0.857"/>
</g>
</svg>
