<?xml version="1.0" encoding="utf-8"?>
<!-- Generator: Adobe Illustrator 16.0.0, SVG Export Plug-In . SVG Version: 6.00 Build 0)  -->
<!DOCTYPE svg PUBLIC "-//W3C//DTD SVG 1.0//EN" "http://www.w3.org/TR/2001/REC-SVG-20010904/DTD/svg10.dtd">
<svg version="1.0" id="Layer_1" xmlns="http://www.w3.org/2000/svg" xmlns:xlink="http://www.w3.org/1999/xlink" x="0px" y="0px"
	 width="33.613px" height="42.395px" viewBox="0 0 33.613 42.395" enable-background="new 0 0 33.613 42.395" xml:space="preserve">
<g>
	<path fill="#FFFFFF" d="M17.977,39.212c-0.785,1.053-2.171,1.449-3.283,0.75c-1.117-0.699-1.453-2.172-0.752-3.287
		c0.698-1.115,3.383-2.094,4.556-2.703C18.497,36.493,18.677,38.272,17.977,39.212z"/>
	<path fill="#FFFFFF" d="M9.317,35.499c-0.785,1.053-2.171,1.451-3.283,0.754c-1.118-0.701-1.454-2.174-0.754-3.291
		c0.699-1.113,3.384-2.094,4.558-2.701C9.838,32.782,10.017,34.56,9.317,35.499z"/>
	<path fill="#FFFFFF" d="M26.637,34.261c-0.785,1.055-2.171,1.453-3.284,0.754c-1.117-0.701-1.452-2.172-0.752-3.289
		c0.698-1.113,3.383-2.094,4.557-2.701C27.157,31.546,27.336,33.323,26.637,34.261z"/>
	<path fill="#FFFFFF" d="M7.774,14.593c-0.544-0.795-0.862-1.756-0.862-2.791c0-2.732,2.217-4.949,4.948-4.949
		c1.854,0,3.47,1.023,4.317,2.531"/>
	
		<line fill="#FFFFFF" stroke="#4D4C4C" stroke-width="0.6372" stroke-miterlimit="10" x1="11.86" y1="1.905" x2="11.86" y2="5.202"/>
	<line fill="none" stroke="#FFFFFF" stroke-width="1.1144" stroke-miterlimit="10" x1="11.86" y1="1.905" x2="11.86" y2="5.202"/>
	
		<line fill="#FFFFFF" stroke="#4D4C4C" stroke-width="0.6372" stroke-miterlimit="10" x1="5.261" y1="11.802" x2="1.964" y2="11.802"/>
	<line fill="none" stroke="#FFFFFF" stroke-width="1.1144" stroke-miterlimit="10" x1="5.261" y1="11.802" x2="1.964" y2="11.802"/>
	
		<line fill="#FFFFFF" stroke="#4D4C4C" stroke-width="0.6372" stroke-miterlimit="10" x1="3.289" y1="6.853" x2="6.146" y2="8.503"/>
	<line fill="none" stroke="#FFFFFF" stroke-width="1.1144" stroke-miterlimit="10" x1="3.289" y1="6.853" x2="6.146" y2="8.503"/>
	
		<line fill="#FFFFFF" stroke="#4D4C4C" stroke-width="0.6372" stroke-miterlimit="10" x1="16.809" y1="3.229" x2="15.16" y2="6.087"/>
	<line fill="none" stroke="#FFFFFF" stroke-width="1.1144" stroke-miterlimit="10" x1="16.809" y1="3.229" x2="15.16" y2="6.087"/>
	
		<line fill="#FFFFFF" stroke="#4D4C4C" stroke-width="0.6372" stroke-miterlimit="10" x1="3.289" y1="16.751" x2="6.147" y2="15.103"/>
	
		<line fill="#FFFFFF" stroke="#4D4C4C" stroke-width="0.6372" stroke-miterlimit="10" x1="17.576" y1="8.503" x2="20.432" y2="6.853"/>
	<line fill="none" stroke="#FFFFFF" stroke-width="1.1144" stroke-miterlimit="10" x1="3.289" y1="16.751" x2="6.147" y2="15.103"/>
	<line fill="none" stroke="#FFFFFF" stroke-width="1.1144" stroke-miterlimit="10" x1="17.576" y1="8.503" x2="20.432" y2="6.853"/>
	
		<line fill="#FFFFFF" stroke="#4D4C4C" stroke-width="0.6372" stroke-miterlimit="10" x1="6.914" y1="3.229" x2="8.561" y2="6.087"/>
	<line fill="none" stroke="#FFFFFF" stroke-width="1.1144" stroke-miterlimit="10" x1="6.914" y1="3.229" x2="8.561" y2="6.087"/>
	<path fill="#FFFFFF" d="M27.926,16.919c0.001-0.057,0.017-0.111,0.017-0.17c0-3.416-2.769-6.186-6.186-6.186
		c-2.648,0-4.892,1.674-5.772,4.016c-0.52-0.186-1.068-0.303-1.649-0.303c-2.733,0-4.948,2.215-4.948,4.947
		c0,0.08,0.019,0.154,0.023,0.236c-0.396-0.145-0.817-0.236-1.262-0.236c-2.049,0-3.711,1.662-3.711,3.711s1.662,3.711,3.711,3.711
		c1.871,0,16.246,0,18.557,0c2.733,0,4.949-2.215,4.949-4.947C31.654,19.388,30.064,17.466,27.926,16.919z"/>
</g>
</svg>
