<?xml version="1.0" encoding="utf-8"?>
<!-- Generator: Adobe Illustrator 16.0.0, SVG Export Plug-In . SVG Version: 6.00 Build 0)  -->
<!DOCTYPE svg PUBLIC "-//W3C//DTD SVG 1.0//EN" "http://www.w3.org/TR/2001/REC-SVG-20010904/DTD/svg10.dtd">
<svg version="1.0" id="Layer_1" xmlns="http://www.w3.org/2000/svg" xmlns:xlink="http://www.w3.org/1999/xlink" x="0px" y="0px"
	 width="43.606px" height="36.641px" viewBox="0 0 43.606 36.641" enable-background="new 0 0 43.606 36.641" xml:space="preserve">
<path fill-rule="evenodd" clip-rule="evenodd" fill="#FFFFFF" d="M15.397,22.817c-3.236,0-5.851-2.721-5.851-6.045
	c0-3.326,2.615-6.044,5.851-6.044c3.237,0,5.851,2.718,5.851,6.044C21.261,20.097,18.634,22.817,15.397,22.817z M29.584,19.232
	v-4.634h-2.537c-0.247-1.539-0.855-3.223-1.775-4.685l1.813-1.762l-2.914-2.964l-1.785,1.826c-1.372-1.06-3.249-1.785-4.75-2.147
	v-2.59H13.16v2.498C11.669,5.06,10,5.719,8.59,6.704L6.907,4.853L4.046,7.868L5.82,9.731c-0.982,1.411-1.658,3.329-1.983,4.868
	H1.211v4.634h2.59c0.284,1.539,0.917,3.157,1.836,4.568L3.71,25.677l2.924,2.951l1.94-1.98c1.335,0.997,3.094,1.683,4.584,2.034
	v2.872h4.477v-2.795c1.501-0.26,3.028-0.879,4.414-1.812l1.837,2.019l2.875-3.004l-1.903-1.992c0.997-1.373,1.695-3.198,2.058-4.737
	H29.584z M33.324,30.491c-1.527,0-2.769-1.281-2.769-2.861c0-1.578,1.242-2.86,2.769-2.86c1.527,0,2.77,1.282,2.77,2.86
	C36.094,29.21,34.851,30.491,33.324,30.491z M40.04,28.475v-1.542h-1.203c-0.117-1.541-0.402-1.694-0.84-2.383l0.867-0.917
	l-1.387-1.451l-1.007,0.842c-0.648-0.493-0.907-0.869-2.407-1.034v-1.219h-1.488v1.179c-1.489,0.128-1.657,0.45-2.332,0.918
	l-0.868-0.878l-1.396,1.434l0.829,1.037c-0.466,0.671-0.804,0.93-0.959,2.471h-1.243v1.542h1.218
	c0.129,1.537,0.44,1.654,0.867,2.327l-0.907,0.972l1.385,1.449l1.075-0.92c0.635,0.468,0.843,0.817,2.332,0.972v1.359h1.488v-1.321
	c1.5-0.114,1.604-0.414,2.25-0.853l0.958,0.957l1.397-1.436l-0.88-1.1c0.466-0.646,0.816-0.869,0.985-2.406H40.04z"/>
</svg>
